<?xml version="1.0" encoding="UTF-8" standalone="no"?>
<!-- Created with Inkscape (http://www.inkscape.org/) -->

<svg
   width="256mm"
   height="256mm"
   viewBox="0 0 256.00001 255.99999"
   version="1.1"
   id="svg5"
   xml:space="preserve"
   inkscape:version="1.2 (dc2aeda, 2022-05-15)"
   sodipodi:docname="2023-01-07 - Ornament template 2.svg"
   xmlns:inkscape="http://www.inkscape.org/namespaces/inkscape"
   xmlns:sodipodi="http://sodipodi.sourceforge.net/DTD/sodipodi-0.dtd"
   xmlns="http://www.w3.org/2000/svg"
   xmlns:svg="http://www.w3.org/2000/svg"><sodipodi:namedview
     id="namedview7"
     pagecolor="#ffffff"
     bordercolor="#666666"
     borderopacity="1.0"
     inkscape:showpageshadow="2"
     inkscape:pageopacity="0.0"
     inkscape:pagecheckerboard="0"
     inkscape:deskcolor="#d1d1d1"
     inkscape:document-units="mm"
     showgrid="false"
     inkscape:zoom="1.7540811"
     inkscape:cx="461.78024"
     inkscape:cy="239.72666"
     inkscape:window-width="2451"
     inkscape:window-height="1307"
     inkscape:window-x="1665"
     inkscape:window-y="26"
     inkscape:window-maximized="0"
     inkscape:current-layer="g1" /><defs
     id="defs2" /><g
     id="g1"
     inkscape:label="g1"><path
       id="Primary"
       style="display:inline;fill:#ffff00;stroke:#ff0000;stroke-width:0.1;stroke-dasharray:none"
       inkscape:label="Primary"
       d="M 52.927519 15.284855 C 50.668081 15.284855 48.834229 16.890977 48.834229 18.877401 C 48.834229 22.807144 49.894281 26.14072 51.564294 29.107784 C 48.228361 28.597706 45.231892 27.753292 42.599984 26.496057 C 40.614791 25.551339 38.130536 26.201305 37.049935 27.936279 C 35.969334 29.682036 36.705985 31.863124 38.691178 32.811434 C 44.061436 35.368994 50.328665 36.643706 57.712756 36.783801 C 61.760909 40.756649 66.197805 44.108538 70.045337 48.386711 C 67.073668 47.844305 64.085609 47.556677 61.04847 47.614148 C 58.789033 47.646488 56.987543 49.277628 57.020292 51.264054 C 57.057132 53.243292 59.046671 54.91367 61.179211 54.798722 C 66.16474 54.690955 70.995007 55.671518 75.894592 57.578914 C 76.879315 60.076736 77.209121 61.65594 77.586479 64.232772 C 74.227182 65.291704 71.215857 66.670348 68.685213 68.307975 C 63.826677 65.208935 57.044356 65.223159 50.422245 65.912773 C 49.603612 65.998973 49.124344 66.73549 49.455896 67.40002 C 51.913261 72.285573 55.216818 77.438583 60.474345 79.686609 C 60.47346 79.699709 60.472661 79.712783 60.471761 79.725883 C 53.004317 87.989927 48.866881 98.730108 48.860067 109.86823 C 48.860161 134.72054 69.007519 154.86798 93.859904 154.86807 C 118.71224 154.86798 138.85965 134.72054 138.85974 109.86823 C 138.85874 98.709038 134.7109 87.947997 127.22221 79.674723 L 127.2558 79.709347 C 127.25547 79.701347 127.25499 79.693892 127.25476 79.686092 C 132.52895 77.428056 135.7912 72.31841 138.2634 67.403638 C 138.59901 66.739091 138.1203 66.002629 137.29756 65.920007 C 130.76786 65.238262 123.9108 65.208443 119.04906 68.301774 C 116.51458 66.661508 113.49786 65.281051 110.1323 64.221403 C 110.49977 61.715071 110.84289 60.072952 111.82522 57.582532 C 116.72478 55.671542 121.57916 54.690984 126.54008 54.80234 C 128.90187 54.942426 130.66216 53.249987 130.699 51.267155 C 130.7358 49.280731 128.9308 47.650094 126.67134 47.617765 C 123.61377 47.560295 120.63388 47.851489 117.67861 48.386711 C 121.53438 44.097761 125.95126 40.767453 130.00757 36.787419 C 137.3958 36.647334 143.66248 35.368993 149.02863 32.811434 C 151.01385 31.863122 151.75048 29.682036 150.66987 27.936279 C 149.58927 26.201305 147.10911 25.55134 145.11982 26.496057 C 142.48791 27.7497 139.49567 28.579588 136.16792 29.08608 C 137.83381 26.126202 138.88558 22.79996 138.88558 18.877401 C 138.88558 16.890977 137.05175 15.284855 134.79229 15.284855 C 132.5329 15.284855 130.699 16.890977 130.699 18.877401 C 130.699 25.612562 126.30661 29.970214 120.53114 35.106901 C 120.06041 32.750486 119.32401 30.40807 118.23929 28.2205 C 117.33475 26.402892 114.91962 25.569374 112.85254 26.359631 C 110.78145 27.149893 109.8318 29.269398 110.73639 31.086991 C 112.4924 34.628798 113.20872 38.777715 112.75436 42.337467 C 105.84517 49.414986 103.62181 54.699123 102.21547 62.431848 C 101.27667 62.294801 100.32628 62.189877 99.371712 62.099569 C 98.983587 59.032514 96.633293 56.752284 93.859904 56.752091 C 91.085235 56.753291 88.734909 59.036373 88.349129 62.105253 C 87.391026 62.196933 86.437133 62.303421 85.49504 62.442183 C 84.097427 54.731112 81.893691 49.445609 74.953048 42.337467 C 74.4987 38.774124 75.215026 34.625207 76.971012 31.086991 C 77.875615 29.27299 76.926002 27.153486 74.854862 26.359631 C 72.783701 25.569374 70.372704 26.399286 69.468111 28.2205 C 68.383398 30.40807 67.646991 32.750486 67.176261 35.106901 C 61.413042 29.970352 57.020292 25.612045 57.020292 18.876884 C 57.020292 16.89046 55.186945 15.284855 52.927519 15.284855 z M 89.6059 72.113944 C 89.6957 72.198784 89.800403 72.270985 89.920093 72.323234 L 95.213826 74.638338 L 95.778133 76.080111 L 93.23927 75.146834 C 92.79354 74.984574 92.294502 75.123139 91.998002 75.493066 C 91.702232 75.863946 91.675689 76.382883 91.933923 76.780326 L 93.405151 79.050989 L 91.875529 78.818962 L 88.447831 74.166532 C 88.086706 73.676279 87.397108 73.571845 86.90684 73.932955 C 86.4166 74.294125 86.312145 74.983713 86.673263 75.473946 L 88.79303 78.351807 L 86.426249 77.992655 L 84.848051 75.850151 C 84.486891 75.359871 83.797305 75.255423 83.30706 75.616573 C 82.816812 75.977693 82.712377 76.667311 83.073482 77.157564 L 83.344267 77.5255 L 81.54541 77.252649 C 80.943487 77.161349 80.38148 77.575217 80.29019 78.17714 C 80.19889 78.77907 80.612736 79.341071 81.214681 79.432361 L 83.013538 79.705212 L 82.645601 79.975997 C 82.155688 80.336887 82.051174 81.026775 82.412024 81.516988 C 82.773202 82.006958 83.46311 82.111952 83.953015 81.751082 L 86.09552 80.172884 L 88.462301 80.531519 L 85.58444 82.651286 C 85.094175 83.012429 84.989725 83.702024 85.350863 84.192277 C 85.712018 84.682527 86.401604 84.787501 86.891854 84.426371 L 91.544283 80.99919 L 93.073905 81.231217 L 90.995996 82.963928 C 90.631036 83.266548 90.50259 83.770021 90.675085 84.211914 C 90.848875 84.653144 91.28788 84.939419 91.758223 84.910579 L 94.459867 84.772087 L 93.493001 85.981832 L 87.750716 86.62262 C 87.146193 86.69012 86.710778 87.23583 86.778166 87.840633 C 86.844966 88.447383 87.392189 88.88767 87.995662 88.8137 L 91.5479 88.416825 L 90.053935 90.286995 L 87.409652 90.582068 C 86.805124 90.649568 86.369679 91.193675 86.436584 91.799565 C 86.504084 92.404098 87.053453 92.844642 87.654598 92.772632 L 88.108317 92.721989 L 87.017428 94.087797 C 86.6372 94.563757 86.714886 95.256913 87.190544 95.637056 C 87.661829 96.013676 88.35647 95.94283 88.74032 95.46394 L 89.830693 94.098649 L 89.880819 94.551335 C 89.948419 95.162258 90.501839 95.592092 91.098832 95.524402 C 91.70333 95.457202 92.139039 94.911405 92.071899 94.306905 L 91.77631 91.662622 L 93.270793 89.792452 L 93.667668 93.34469 C 93.734868 93.954393 94.286608 94.385717 94.885681 94.317757 C 95.490459 94.250557 95.925652 93.704257 95.858232 93.099744 L 95.216927 87.356425 L 96.18276 86.147196 L 96.644747 88.814217 C 96.725147 89.281647 97.095194 89.644274 97.564587 89.715454 C 98.034007 89.786654 98.495952 89.549966 98.711287 89.127376 L 99.941703 86.717187 L 100.50653 88.159477 L 98.190389 93.453727 C 97.945659 94.010907 98.200984 94.661488 98.758313 94.904801 C 99.310056 95.147291 99.963507 94.899801 100.2099 94.336877 L 101.64289 91.062142 L 102.51519 93.291463 L 101.4491 95.729041 C 101.20462 96.286534 101.45941 96.936952 102.01703 97.180632 C 102.56878 97.422825 103.22165 97.175627 103.4681 96.612191 L 103.65104 96.194128 L 104.28872 97.822453 C 104.51098 98.390056 105.15189 98.668701 105.71706 98.447221 C 106.28406 98.225181 106.56388 97.585874 106.34183 97.018884 L 105.70466 95.39056 L 106.1222 95.573494 C 106.6853 95.823184 107.3304 95.562689 107.5738 95.005054 C 107.81743 94.447694 107.56309 93.797359 107.00535 93.553979 L 104.56829 92.487895 L 103.696 90.25909 L 106.97021 91.691044 C 107.52757 91.942224 108.17914 91.681044 108.42181 91.12312 C 108.66542 90.565777 108.41106 89.914919 107.85337 89.671529 L 102.55963 87.356425 L 101.99532 85.914653 L 104.53419 86.847929 C 104.97418 87.011549 105.47921 86.871624 105.77597 86.501697 C 106.07174 86.130817 106.09729 85.612477 105.83798 85.214954 L 104.36727 82.943774 L 105.89845 83.175802 L 109.32563 87.828231 C 109.68677 88.318494 110.37637 88.422948 110.86662 88.061808 C 111.35688 87.700685 111.46129 87.011077 111.1002 86.520817 L 108.98043 83.642957 L 111.34773 84.002108 L 112.92541 86.144613 C 113.28655 86.634836 113.9767 86.7393 114.46691 86.37819 C 114.95716 86.01702 115.06111 85.327442 114.69998 84.837199 L 114.42971 84.469779 L 116.23218 84.743148 C 116.83411 84.834448 117.39615 84.420296 117.4874 83.818656 C 117.5787 83.216783 117.16532 82.654679 116.56394 82.562919 L 116.56343 82.562919 L 114.76095 82.289551 L 115.12889 82.018766 C 115.61914 81.657603 115.72361 80.968015 115.36247 80.477775 C 115.00134 79.987512 114.31173 79.883048 113.82148 80.244198 L 111.67897 81.822396 L 109.31219 81.463245 L 112.19005 79.343477 C 112.6803 78.982354 112.78477 78.292746 112.42363 77.802486 C 112.06248 77.312253 111.37289 77.207779 110.88264 77.568909 L 106.23021 80.99609 L 104.69955 80.764062 L 106.77746 79.031352 C 107.14219 78.728392 107.27089 78.225239 107.09837 77.783366 C 106.92489 77.342176 106.48754 77.057674 106.01523 77.084184 L 103.31411 77.222677 L 104.28046 76.013448 L 109.84084 75.391781 C 122.84097 81.428109 131.86028 94.591493 131.86017 109.86823 C 131.84917 110.47952 131.81892 111.09014 131.77852 111.70016 A 38 38 0 0 1 131.14187 117.105 C 131.14787 117.095 131.15457 117.08544 131.16047 117.07554 C 131.04146 117.69163 130.90167 118.29881 130.75326 118.9023 L 56.990837 118.9023 A 38 38 0 0 1 56.395007 116.10402 C 56.245177 115.22134 56.125568 114.33392 56.03844 113.44269 A 38 38 0 0 1 55.860156 109.86823 A 38 38 0 0 1 56.054976 106.16148 C 56.050276 106.17268 56.045277 106.18377 56.040507 106.19507 C 57.79241 88.154675 71.972504 74.086647 89.6059 72.113944 z M 57.859517 121.91556 L 57.860034 121.91556 L 129.88199 121.91556 C 129.77231 122.2446 129.66394 122.57434 129.54558 122.89896 A 38 38 0 0 1 129.49701 123.04882 L 129.48925 123.04882 C 125.98824 132.5261 118.88516 140.08951 109.96435 144.27078 C 109.59382 143.91977 109.23764 143.54529 108.89723 143.14889 C 108.22743 142.3699 107.62165 141.50785 107.08907 140.57592 C 107.5265 140.79096 107.97891 140.95409 108.44041 141.06322 C 108.85359 141.15672 109.27223 141.20704 109.69201 141.2136 C 109.74391 141.21375 109.76275 141.1273 109.71785 141.09423 C 108.96572 140.54975 108.29614 139.84169 107.74019 139.00288 C 107.21798 138.21594 106.80243 137.3258 106.51029 136.36842 C 107.09915 136.78363 107.75695 137.0197 108.43111 137.05778 C 108.48281 137.06078 108.50491 136.97608 108.46211 136.93944 C 107.83976 136.39217 107.29443 135.71758 106.84878 134.9437 C 106.43114 134.22457 106.1051 133.4278 105.88243 132.58209 C 106.29752 132.92022 106.76449 133.14454 107.25288 133.24045 C 107.31098 133.25345 107.33847 133.15365 107.28647 133.11849 C 106.66988 132.67814 106.15344 132.04553 105.78682 131.28139 C 105.57443 130.82969 105.42763 130.33395 105.35326 129.8174 C 105.34326 129.7476 105.26364 129.748 105.25404 129.81792 C 105.17984 130.33438 105.03306 130.82999 104.82048 131.28139 C 104.45387 132.04553 103.93742 132.67814 103.32083 133.11849 C 103.26883 133.15359 103.29631 133.25343 103.35441 133.24045 C 103.84284 133.14455 104.30978 132.92023 104.72487 132.58209 C 104.5022 133.4278 104.17617 134.22457 103.75852 134.9437 C 103.31296 135.71768 102.76761 136.39228 102.14519 136.93944 C 102.10209 136.97624 102.12471 137.06113 102.17671 137.05778 C 102.8507 137.01958 103.5083 136.78353 104.09701 136.36842 C 103.80487 137.3258 103.38932 138.21594 102.86711 139.00288 C 102.31145 139.84179 101.64203 140.54988 100.88997 141.09423 C 100.84517 141.12733 100.8639 141.21375 100.9158 141.2136 C 101.33541 141.2066 101.75387 141.15669 102.16689 141.06322 C 102.62839 140.95409 103.0808 140.79096 103.51823 140.57592 C 102.98582 141.50802 102.38002 142.37009 101.71007 143.14889 C 100.97132 144.01259 100.15923 144.77116 99.288513 145.41076 C 99.242113 145.44406 99.262502 145.53353 99.315902 145.53065 C 100.2721 145.46785 101.22428 145.33014 102.16689 145.11827 C 103.03202 144.92208 103.88638 144.65694 104.72487 144.32452 L 104.72487 146.26807 C 102.48322 146.93742 100.16234 147.41144 97.780595 147.65765 C 97.547497 147.46952 97.320691 147.27373 97.100533 147.07061 C 96.436697 146.45779 95.836272 145.77964 95.308394 145.04644 C 95.741802 145.21563 96.190063 145.344 96.647331 145.42988 C 97.056937 145.50348 97.471944 145.54307 97.888082 145.54822 C 97.939682 145.54829 97.958103 145.48007 97.913403 145.45417 C 97.168149 145.02577 96.504697 144.4687 95.953833 143.80879 C 95.436257 143.18963 95.024366 142.48931 94.734786 141.73605 C 95.318242 142.06276 95.970005 142.24857 96.638029 142.27865 C 96.689229 142.28065 96.711335 142.21454 96.669035 142.18564 C 96.052257 141.75496 95.511844 141.22415 95.070166 140.61519 C 94.656296 140.04932 94.333222 139.42232 94.112602 138.75691 C 94.524098 139.0229 94.986999 139.19935 95.471175 139.2747 C 95.527675 139.2837 95.553948 139.2072 95.504248 139.1791 C 94.893162 138.83264 94.38137 138.33492 94.018034 137.73371 C 93.807456 137.37833 93.661866 136.98826 93.588086 136.58184 C 93.577986 136.52734 93.500001 136.52734 93.489901 136.58184 C 93.416401 136.98833 93.270773 137.37845 93.059953 137.73371 C 92.696765 138.33486 92.185163 138.83258 91.574255 139.1791 C 91.524555 139.2072 91.550828 139.28332 91.607328 139.2747 C 92.091286 139.1994 92.553997 139.0232 92.965385 138.75742 C 92.744717 139.42269 92.421647 140.04948 92.007821 140.61519 C 91.566233 141.22422 91.025808 141.75505 90.408952 142.18564 C 90.366652 142.21464 90.388758 142.28095 90.439958 142.27865 C 91.107984 142.24855 91.759743 142.06276 92.343201 141.73605 C 92.053621 142.48931 91.64173 143.18963 91.124154 143.80879 C 91.025454 143.92638 90.923116 144.04081 90.817196 144.15192 C 89.845052 143.48882 88.923365 142.75452 88.059741 141.95516 C 86.896487 140.88127 85.844368 139.69291 84.919364 138.40809 C 85.678982 138.70436 86.464607 138.9291 87.265991 139.07937 C 87.983515 139.20845 88.710518 139.27793 89.439502 139.28711 C 89.530302 139.28788 89.563019 139.16768 89.48446 139.12226 C 88.17835 138.37168 87.015549 137.39557 86.050045 136.23923 C 85.143141 135.154 84.421514 133.92653 83.914258 132.60638 C 84.936702 133.1789 86.078821 133.5045 87.249455 133.55722 C 87.339655 133.56122 87.379079 133.44448 87.304232 133.39392 C 86.223398 132.63932 85.275845 131.70917 84.501819 130.64215 C 83.776675 129.65081 83.211058 128.55237 82.824402 127.38654 C 83.545388 127.85249 84.355864 128.16149 85.204102 128.29346 C 85.302798 128.30816 85.34915 128.17541 85.262496 128.12603 C 84.191694 127.51862 83.294985 126.64613 82.658521 125.59233 C 82.289571 124.96976 82.034438 124.28642 81.905078 123.57437 C 81.887478 123.47887 81.750616 123.47887 81.732996 123.57437 C 81.604086 124.28654 81.348921 124.96996 80.979553 125.59233 C 80.343087 126.64613 79.446392 127.51862 78.375578 128.12603 C 78.288878 128.17543 78.334759 128.30815 78.433455 128.29346 C 79.281703 128.1615 80.092688 127.85249 80.813672 127.38654 C 80.427014 128.55238 79.860892 129.65082 79.135738 130.64215 C 78.362022 131.70926 77.415143 132.63943 76.334359 133.39392 C 76.259459 133.44452 76.298319 133.56154 76.388619 133.55722 C 77.559073 133.50442 78.701015 133.17882 79.723299 132.60638 C 79.216043 133.92652 78.494406 135.15399 77.587512 136.23923 C 76.622548 137.39571 75.460062 138.37185 74.15413 139.12226 C 74.07553 139.16766 74.108289 139.28787 74.199089 139.28711 C 74.927733 139.27811 75.654378 139.20841 76.371566 139.07937 C 77.17295 138.9291 77.958565 138.70436 78.718193 138.40809 C 77.793475 139.69315 76.74134 140.88154 75.577816 141.95516 C 75.306408 142.20653 75.029172 142.45155 74.746342 142.69 C 67.278909 138.33065 61.363315 131.46459 58.254842 123.04882 L 58.222803 123.04882 A 38 38 0 0 1 57.92463 122.11864 C 57.9018 122.05154 57.882017 121.98284 57.859517 121.91556 z M 80.813672 143.57625 L 80.813672 145.54099 C 79.837305 145.18272 78.878748 144.78591 77.939429 144.35088 C 78.907748 144.13229 79.866645 143.87385 80.813672 143.57625 z M 82.824402 143.57625 C 84.280314 144.03441 85.763837 144.39981 87.265991 144.67024 C 88.106577 144.82004 88.951757 144.94292 89.800203 145.03869 C 89.596055 145.18814 89.384235 145.32682 89.165617 145.45417 C 89.120717 145.48017 89.139655 145.54882 89.191455 145.54822 C 89.607253 145.54322 90.021905 145.50342 90.431173 145.42988 C 90.754411 145.36858 91.073268 145.28611 91.385636 145.18287 C 91.474636 145.18887 91.563724 145.19516 91.652804 145.20096 C 91.154176 145.87514 90.59344 146.50109 89.97797 147.07061 C 89.781802 147.25151 89.580351 147.4266 89.373873 147.59564 C 87.132281 147.32814 84.942462 146.86412 82.824402 146.21898 L 82.824402 143.57625 z M 105.88294 144.32452 C 106.639 144.62316 107.40799 144.86714 108.18616 145.05523 C 107.43036 145.3633 106.66091 145.64193 105.88294 145.90169 L 105.88294 144.32452 z " /></g><circle
     style="display:inline;fill:none;stroke:#ff0000;stroke-width:0.1;stroke-dasharray:none"
     id="ThroughHole"
     cx="93.859879"
     cy="62.869537"
     r="2"
     inkscape:label="ThroughHole" /></svg>
